# xmcd
#
# Track frame offsets:
#	150
#	27478
#	57034
#	91158
#	117974
#	143864
#	161694
#	190384
#	216220
#	233472
#	269891
#	284501
#	299340
#	314055
#	334759
#
# Disc length: 4677
#
# Revision: 1
# Processed by: cddbd v1.5.1PL0 Copyright (c) Steve Scherf et al.
# Submitted via: EasyCDDAExtractor 5.0.5.1
# Normalized: r0:DSETVAR1
#
DISCID=ed12430f
DTITLE=Various Artist - DEE JAY MIX CLUB KWIECIEÑ 2003 PART 5
DYEAR=2003
DGENRE=Acapella
TTITLE0=IAN VAN DAHL - SECRET LOVE
TTITLE1=REDWING - MY HEART IS CALLING
TTITLE2=LOVESTERN GALACTICA PROJECT - SUPERSTAR
TTITLE3=NOVASPACE - PARADISE
TTITLE4=GABRY PONTE - GEORDIE(RMX)
TTITLE5=CELINE DION - I DROVE ALL NIGHT
TTITLE6=MARC ET CLAUDE - IT'S ALL FOR LOVE
TTITLE7=TOMCRAFT - INTO THE LIGHT
TTITLE8=EDYTA - THE STORY SO FAR
TTITLE9=THE ONES - SUPERSTAR (RMX)
TTITLE10=ANASTACIA - LOVE IS A CRIME
TTITLE11=BIG BROVAZ - OK.
TTITLE12=BLACKSTREET - WIZZY WOW
TTITLE13=THEWITLAMS - FALL FOR YOU
TTITLE14=SWEETBOX - HERE ON MY OWN
EXTD=
EXTT0=
EXTT1=
EXTT2=
EXTT3=
EXTT4=
EXTT5=
EXTT6=
EXTT7=
EXTT8=
EXTT9=
EXTT10=
EXTT11=
EXTT12=
EXTT13=
EXTT14=
PLAYORDER=
